<svg width="21" height="21" viewBox="0 0 21 21" fill="none" xmlns="http://www.w3.org/2000/svg">
<g clip-path="url(#clip0_88_4286)">
<path d="M2.21083 15.1044C2.21189 15.6217 2.32221 16.133 2.53457 16.6048C2.74693 17.0766 3.05654 17.4982 3.44314 17.842V19.4174C3.44314 19.5809 3.50805 19.7376 3.6236 19.8531C3.73916 19.9687 3.89588 20.0336 4.05929 20.0336H5.2916C5.45502 20.0336 5.61174 19.9687 5.72729 19.8531C5.84284 19.7376 5.90776 19.5809 5.90776 19.4174V18.8013H15.7662V19.4174C15.7662 19.5809 15.8312 19.7376 15.9467 19.8531C16.0623 19.9687 16.219 20.0336 16.3824 20.0336H17.6147C17.7781 20.0336 17.9348 19.9687 18.0504 19.8531C18.1659 19.7376 18.2309 19.5809 18.2309 19.4174V17.842C18.6175 17.4982 18.9271 17.0766 19.1394 16.6048C19.3518 16.133 19.4621 15.6217 19.4632 15.1044V13.2559H2.21083V15.1044ZM20.0793 10.1751H4.05929V2.98342C4.05964 2.82171 4.10788 2.66372 4.19791 2.52939C4.28794 2.39505 4.41574 2.29039 4.56519 2.2286C4.71464 2.16681 4.87903 2.15067 5.03764 2.1822C5.19625 2.21373 5.34197 2.29153 5.45642 2.40578L6.19851 3.14748C5.69287 4.29815 5.90545 5.42378 6.53046 6.21785L6.52391 6.2244C6.4088 6.33989 6.34416 6.49631 6.34416 6.65937C6.34416 6.82243 6.4088 6.97884 6.52391 7.09433L6.95946 7.52988C7.01667 7.58711 7.08461 7.63251 7.15937 7.66348C7.23413 7.69445 7.31427 7.7104 7.39519 7.7104C7.47612 7.7104 7.55625 7.69445 7.63102 7.66348C7.70578 7.63251 7.77371 7.58711 7.83093 7.52988L11.8887 3.47211C11.9459 3.4149 11.9913 3.34696 12.0223 3.2722C12.0533 3.19744 12.0692 3.1173 12.0692 3.03638C12.0692 2.95545 12.0533 2.87531 12.0223 2.80055C11.9913 2.72579 11.9459 2.65785 11.8887 2.60064L11.4532 2.16509C11.3376 2.04963 11.181 1.98477 11.0176 1.98477C10.8543 1.98477 10.6976 2.04963 10.5821 2.16509L10.5755 2.17164C9.78145 1.54663 8.65658 1.33405 7.50514 1.83969L6.76344 1.0976C6.39048 0.724602 5.91529 0.470578 5.39795 0.367661C4.88061 0.264744 4.34437 0.317556 3.85705 0.519418C3.36973 0.721279 2.95322 1.06312 2.66019 1.50172C2.36716 1.94031 2.21078 2.45595 2.21083 2.98342V10.1751H1.59467C1.43126 10.1751 1.27453 10.24 1.15898 10.3556C1.04343 10.4711 0.978516 10.6279 0.978516 10.7913L0.978516 11.4074C0.978516 11.5708 1.04343 11.7276 1.15898 11.8431C1.27453 11.9587 1.43126 12.0236 1.59467 12.0236H20.0793C20.2427 12.0236 20.3995 11.9587 20.515 11.8431C20.6306 11.7276 20.6955 11.5708 20.6955 11.4074V10.7913C20.6955 10.6279 20.6306 10.4711 20.515 10.3556C20.3995 10.24 20.2427 10.1751 20.0793 10.1751Z" fill="#004274"/>
</g>
<defs>
<clipPath id="clip0_88_4286">
<rect width="19.717" height="19.717" fill="white" transform="translate(0.978516 0.316406)"/>
</clipPath>
</defs>
</svg>
