<svg width="20" height="16" viewBox="0 0 20 16" fill="none" xmlns="http://www.w3.org/2000/svg">
<path d="M5.52178 8.17511C6.88071 8.17511 7.9864 6.793 7.9864 5.09434C7.9864 3.39567 6.88071 2.01356 5.52178 2.01356C4.16284 2.01356 3.05715 3.39567 3.05715 5.09434C3.05715 6.793 4.16284 8.17511 5.52178 8.17511ZM16.3661 3.24587H9.46517C9.19283 3.24587 8.97224 3.5216 8.97224 3.86203V9.40742H2.07131V1.39741C2.07131 1.05698 1.85072 0.78125 1.57838 0.78125H0.592534C0.320193 0.78125 0.0996094 1.05698 0.0996094 1.39741V14.9528C0.0996094 15.2932 0.320193 15.569 0.592534 15.569H1.57838C1.85072 15.569 2.07131 15.2932 2.07131 14.9528V13.1044H17.8449V14.9528C17.8449 15.2932 18.0655 15.569 18.3378 15.569H19.3237C19.596 15.569 19.8166 15.2932 19.8166 14.9528V7.55896C19.8166 5.17675 18.2719 3.24587 16.3661 3.24587Z" fill="#004274"/>
</svg>
