<svg width="18" height="15" viewBox="0 0 18 15" fill="none" xmlns="http://www.w3.org/2000/svg">
<path d="M17.4434 5.41317L16.9871 4.61602C16.9666 4.58087 16.933 4.55528 16.8937 4.54482C16.8543 4.53435 16.8125 4.53988 16.7772 4.56018L15.801 5.13012L14.2933 0.96722C14.2137 0.718822 14.0573 0.502147 13.8465 0.348481C13.6357 0.194815 13.3816 0.112109 13.1207 0.112305H4.77759C4.10945 0.112305 3.5164 0.543614 3.31037 1.18095L1.87396 5.13205L0.895814 4.5621C0.860549 4.5418 0.818684 4.53628 0.779361 4.54674C0.740038 4.5572 0.706451 4.5828 0.685936 4.61794L0.229596 5.41317C0.187236 5.48633 0.212267 5.57876 0.285436 5.62112L1.44843 6.29889L1.16923 7.06908C1.14613 7.1307 1.13457 7.19617 1.13457 7.26163V13.9662C1.13457 14.2685 1.36178 14.513 1.64098 14.513H2.94261C3.17944 14.513 3.38547 14.3339 3.43553 14.0836L3.58379 13.3577H14.0892L14.2375 14.0836C14.2895 14.3339 14.4936 14.513 14.7304 14.513H16.0321C16.3113 14.513 16.5385 14.2685 16.5385 13.9662V7.26163C16.5385 7.19617 16.5269 7.1307 16.5038 7.06908L16.2246 6.29889L17.3857 5.62112C17.4206 5.60094 17.4463 5.56784 17.4571 5.52895C17.4679 5.49006 17.463 5.44849 17.4434 5.41317ZM4.06131 9.41047C3.63578 9.41047 3.29112 9.06581 3.29112 8.64028C3.29112 8.21475 3.63578 7.87009 4.06131 7.87009C4.48684 7.87009 4.83151 8.21475 4.83151 8.64028C4.83151 9.06581 4.48684 9.41047 4.06131 9.41047ZM11.5322 10.8546C11.5322 10.9393 11.4629 11.0086 11.3782 11.0086H6.29488C6.21015 11.0086 6.14084 10.9393 6.14084 10.8546V9.23718C6.14084 9.15246 6.21015 9.08314 6.29488 9.08314H7.06507C7.14979 9.08314 7.21911 9.15246 7.21911 9.23718V9.93036H10.4539V9.23718C10.4539 9.15246 10.5232 9.08314 10.608 9.08314H11.3782C11.4629 9.08314 11.5322 9.15246 11.5322 9.23718V10.8546ZM13.6117 9.41047C13.1862 9.41047 12.8415 9.06581 12.8415 8.64028C12.8415 8.21475 13.1862 7.87009 13.6117 7.87009C14.0373 7.87009 14.3819 8.21475 14.3819 8.64028C14.3819 9.06581 14.0373 9.41047 13.6117 9.41047ZM3.2141 5.50174L4.61393 1.65269L4.62355 1.62766L4.63126 1.60263C4.65244 1.53909 4.7102 1.49673 4.77759 1.49673H13.011L14.4628 5.50174H3.2141Z" fill="#004274"/>
</svg>
