<svg width="23" height="23" viewBox="0 0 23 23" fill="none" xmlns="http://www.w3.org/2000/svg">
<path d="M11.6281 19.9182C9.37174 19.9182 9.10574 19.9063 8.2252 19.8677C7.53853 19.8452 6.86075 19.7056 6.22105 19.455C5.67363 19.2419 5.17649 18.9174 4.7612 18.502C4.34592 18.0865 4.02156 17.5893 3.80873 17.0417C3.56778 16.3997 3.43782 15.7214 3.42441 15.0358C3.37305 14.1571 3.37305 13.869 3.37305 11.6301C3.37305 9.36727 3.38497 9.10311 3.42441 8.22715C3.43811 7.54246 3.56807 6.86507 3.80873 6.22392C4.02132 5.67573 4.34589 5.17789 4.76173 4.76221C5.17757 4.34653 5.67553 4.02214 6.2238 3.80977C6.86462 3.5678 7.54218 3.4375 8.22704 3.42453C9.10299 3.375 9.391 3.375 11.6281 3.375C13.9029 3.375 14.1643 3.38692 15.0311 3.42453C15.7171 3.43737 16.3977 3.56762 17.0398 3.80977C17.5879 4.02239 18.0858 4.34686 18.5016 4.76251C18.9174 5.17816 19.242 5.67587 19.4549 6.22392C19.6998 6.87516 19.8309 7.56308 19.841 8.25742C19.8924 9.13613 19.8924 9.42322 19.8924 11.6613C19.8924 13.8993 19.8795 14.1928 19.841 15.0614C19.8273 15.7477 19.697 16.4267 19.4558 17.0693C19.2424 17.6172 18.9175 18.1147 18.5015 18.5303C18.0856 18.9459 17.5878 19.2705 17.0398 19.4834C16.3977 19.7237 15.7199 19.854 15.0347 19.8677C14.1588 19.9182 13.8717 19.9182 11.6281 19.9182ZM11.5969 4.82698C9.3534 4.82698 9.12042 4.83798 8.24446 4.87743C7.72132 4.88427 7.20322 4.98075 6.71269 5.16268C6.3549 5.29982 6.02983 5.51042 5.75841 5.78088C5.487 6.05135 5.27527 6.37568 5.13688 6.73298C4.95344 7.22829 4.85713 7.75203 4.85162 8.28035C4.80301 9.16915 4.80301 9.40213 4.80301 11.6301C4.80301 13.8314 4.81127 14.0984 4.85162 14.9816C4.85988 15.5045 4.95619 16.0227 5.13688 16.5134C5.41756 17.2353 5.98991 17.8058 6.7136 18.0828C7.20351 18.2659 7.7215 18.3624 8.24446 18.3681C9.13234 18.4194 9.36624 18.4194 11.5969 18.4194C13.8469 18.4194 14.0799 18.4084 14.9485 18.3681C15.4717 18.3617 15.9899 18.2652 16.4803 18.0828C16.8362 17.9446 17.1594 17.7339 17.4294 17.464C17.6994 17.1942 17.9104 16.8711 18.0488 16.5153C18.2322 16.02 18.3285 15.4953 18.334 14.967H18.3441C18.3835 14.0901 18.3835 13.8562 18.3835 11.6154C18.3835 9.37461 18.3735 9.13888 18.334 8.26293C18.3257 7.74052 18.2293 7.22327 18.0488 6.73298C17.9107 6.37668 17.6999 6.05304 17.4299 5.78269C17.1598 5.51233 16.8364 5.30118 16.4803 5.16268C15.99 4.97986 15.4717 4.88335 14.9485 4.87743C14.0615 4.82698 13.8295 4.82698 11.5969 4.82698ZM11.6281 15.8668C10.7894 15.8673 9.96932 15.6191 9.27166 15.1535C8.57399 14.688 8.03007 14.026 7.70867 13.2513C7.38728 12.4765 7.30286 11.6239 7.46609 10.8012C7.62932 9.97848 8.03287 9.22266 8.62569 8.62932C9.21852 8.03599 9.97399 7.63179 10.7966 7.46784C11.6191 7.3039 12.4718 7.38758 13.2468 7.70831C14.0218 8.02903 14.6843 8.57238 15.1505 9.26964C15.6166 9.96691 15.8656 10.7868 15.8657 11.6255C15.8643 12.7493 15.4175 13.8267 14.6232 14.6216C13.8289 15.4166 12.7519 15.8644 11.6281 15.8668ZM11.6281 8.87197C11.0839 8.87197 10.5519 9.03335 10.0994 9.33571C9.64686 9.63807 9.29417 10.0678 9.0859 10.5706C8.87763 11.0734 8.82313 11.6267 8.92931 12.1605C9.03548 12.6943 9.29756 13.1846 9.68239 13.5694C10.0672 13.9542 10.5575 14.2163 11.0913 14.3225C11.6251 14.4287 12.1784 14.3742 12.6812 14.1659C13.184 13.9576 13.6137 13.6049 13.9161 13.1524C14.2184 12.6999 14.3798 12.1679 14.3798 11.6237C14.3781 10.8944 14.0877 10.1955 13.572 9.67979C13.0563 9.16412 12.3574 8.87366 11.6281 8.87197ZM16.0308 8.21798C15.901 8.2175 15.7725 8.19145 15.6527 8.14131C15.533 8.09118 15.4242 8.01794 15.3327 7.92578C15.148 7.73966 15.0448 7.48778 15.0457 7.22554C15.0467 6.9633 15.1518 6.71219 15.3379 6.52744C15.5241 6.3427 15.7759 6.23946 16.0382 6.24043C16.3004 6.2414 16.5515 6.34651 16.7363 6.53263C16.921 6.71875 17.0243 6.97064 17.0233 7.23288C17.0223 7.49512 16.9172 7.74623 16.7311 7.93097C16.545 8.11571 16.2931 8.21896 16.0308 8.21798Z" fill="white"/>
</svg>
