<svg width="20" height="20" viewBox="0 0 20 20" fill="none" xmlns="http://www.w3.org/2000/svg">
<path d="M3.79481 17.5138C3.79481 17.5138 2.5625 17.5138 2.5625 16.2815C2.5625 15.0492 3.79481 11.3522 9.95636 11.3522C16.1179 11.3522 17.3502 15.0492 17.3502 16.2815C17.3502 17.5138 16.1179 17.5138 16.1179 17.5138H3.79481ZM9.95636 10.1199C10.9368 10.1199 11.8772 9.73044 12.5705 9.03713C13.2638 8.34382 13.6533 7.40349 13.6533 6.42301C13.6533 5.44252 13.2638 4.50219 12.5705 3.80888C11.8772 3.11557 10.9368 2.72607 9.95636 2.72607C8.97588 2.72607 8.03555 3.11557 7.34224 3.80888C6.64893 4.50219 6.25943 5.44252 6.25943 6.42301C6.25943 7.40349 6.64893 8.34382 7.34224 9.03713C8.03555 9.73044 8.97588 10.1199 9.95636 10.1199Z" fill="#004274"/>
</svg>
