<svg width="26" height="26" viewBox="0 0 26 26" fill="none" xmlns="http://www.w3.org/2000/svg">
<path d="M22.5715 12.3667L13.3535 3.14873C12.9848 2.78002 12.4727 2.55469 11.9094 2.55469H4.73984C3.6132 2.55469 2.69141 3.47648 2.69141 4.60313V11.7727C2.69141 12.336 2.91673 12.8481 3.2957 13.227L12.5137 22.445C12.8824 22.8137 13.3945 23.0391 13.9578 23.0391C14.5211 23.0391 15.0332 22.8137 15.402 22.4348L22.5715 15.2652C22.9505 14.8965 23.1758 14.3844 23.1758 13.8211C23.1758 13.2578 22.9402 12.7354 22.5715 12.3667ZM6.27617 7.67578C5.42607 7.67578 4.73984 6.98955 4.73984 6.13945C4.73984 5.28935 5.42607 4.60313 6.27617 4.60313C7.12627 4.60313 7.8125 5.28935 7.8125 6.13945C7.8125 6.98955 7.12627 7.67578 6.27617 7.67578Z" fill="#004274"/>
</svg>
