<svg width="20" height="21" viewBox="0 0 20 21" fill="none" xmlns="http://www.w3.org/2000/svg">
<path d="M3.17866 9.08122C3.01524 9.08122 2.85852 9.0163 2.74297 8.90075C2.62742 8.7852 2.5625 8.62848 2.5625 8.46506V3.53705C2.5625 3.37364 2.62742 3.21692 2.74297 3.10137C2.85852 2.98581 3.01524 2.9209 3.17866 2.9209H8.1079C8.27131 2.9209 8.42803 2.98581 8.54358 3.10137C8.65914 3.21692 8.72405 3.37364 8.72405 3.53705V8.46506C8.72405 8.62848 8.65914 8.7852 8.54358 8.90075C8.42803 9.0163 8.27131 9.08122 8.1079 9.08122H3.17866ZM11.8048 9.08122C11.6414 9.08122 11.4847 9.0163 11.3691 8.90075C11.2536 8.7852 11.1887 8.62848 11.1887 8.46506V3.53705C11.1887 3.37364 11.2536 3.21692 11.3691 3.10137C11.4847 2.98581 11.6414 2.9209 11.8048 2.9209H16.7328C16.8963 2.9209 17.053 2.98581 17.1685 3.10137C17.2841 3.21692 17.349 3.37364 17.349 3.53705V8.46506C17.349 8.62848 17.2841 8.7852 17.1685 8.90075C17.053 9.0163 16.8963 9.08122 16.7328 9.08122H11.8048ZM3.17866 17.7074C3.01524 17.7074 2.85852 17.6425 2.74297 17.5269C2.62742 17.4114 2.5625 17.2547 2.5625 17.0912V12.162C2.5625 11.9986 2.62742 11.8419 2.74297 11.7263C2.85852 11.6108 3.01524 11.5458 3.17866 11.5458H8.1079C8.27131 11.5458 8.42803 11.6108 8.54358 11.7263C8.65914 11.8419 8.72405 11.9986 8.72405 12.162V17.0912C8.72405 17.2547 8.65914 17.4114 8.54358 17.5269C8.42803 17.6425 8.27131 17.7074 8.1079 17.7074H3.17866ZM11.8048 17.7074C11.6414 17.7074 11.4847 17.6425 11.3691 17.5269C11.2536 17.4114 11.1887 17.2547 11.1887 17.0912V12.162C11.1887 11.9986 11.2536 11.8419 11.3691 11.7263C11.4847 11.6108 11.6414 11.5458 11.8048 11.5458H16.7328C16.8963 11.5458 17.053 11.6108 17.1685 11.7263C17.2841 11.8419 17.349 11.9986 17.349 12.162V17.0912C17.349 17.2547 17.2841 17.4114 17.1685 17.5269C17.053 17.6425 16.8963 17.7074 16.7328 17.7074H11.8048Z" fill="#004274"/>
</svg>
