<svg width="21" height="20" viewBox="0 0 21 20" fill="none" xmlns="http://www.w3.org/2000/svg">
<path d="M10.8365 1.9043C6.30652 1.9043 2.62109 5.58973 2.62109 10.1197C2.62109 14.6497 6.30652 18.3351 10.8365 18.3351C15.3665 18.3351 19.0519 14.6497 19.0519 10.1197C19.0519 5.58973 15.3665 1.9043 10.8365 1.9043ZM10.8365 16.692C7.21268 16.692 4.26417 13.7435 4.26417 10.1197C4.26417 6.49589 7.21268 3.54738 10.8365 3.54738C14.4603 3.54738 17.4088 6.49589 17.4088 10.1197C17.4088 13.7435 14.4603 16.692 10.8365 16.692Z" fill="#004274"/>
<path d="M11.6587 6.01172H10.0156V10.4595L12.721 13.1649L13.8826 12.0032L11.6587 9.7793V6.01172Z" fill="#004274"/>
</svg>
