<svg width="20" height="20" viewBox="0 0 20 20" fill="none" xmlns="http://www.w3.org/2000/svg">
<path d="M18.123 4.96681C17.5254 5.22462 16.875 5.41016 16.2051 5.48243C16.9006 5.06922 17.4215 4.41641 17.6699 3.64649C17.0173 4.03475 16.3023 4.30701 15.5566 4.45118C15.245 4.11803 14.8681 3.85262 14.4494 3.67151C14.0307 3.49039 13.5792 3.39744 13.123 3.39845C11.2773 3.39845 9.79297 4.89454 9.79297 6.73048C9.79297 6.98829 9.82422 7.2461 9.875 7.49415C7.11133 7.34962 4.64648 6.02931 3.00781 4.00782C2.70923 4.51781 2.55276 5.0985 2.55469 5.68946C2.55469 6.84571 3.14258 7.86524 4.03906 8.46485C3.51075 8.44405 2.99481 8.29883 2.5332 8.04102V8.08204C2.5332 9.70118 3.67773 11.043 5.20312 11.3516C4.91672 11.426 4.62208 11.464 4.32617 11.4649C4.10938 11.4649 3.9043 11.4434 3.69727 11.4141C4.11914 12.7344 5.34766 13.6934 6.81055 13.7246C5.66602 14.6211 4.23242 15.1484 2.67578 15.1484C2.39648 15.1484 2.13867 15.1387 1.87109 15.1074C3.34766 16.0547 5.09961 16.6016 6.98633 16.6016C13.1113 16.6016 16.4629 11.5274 16.4629 7.12306C16.4629 6.97852 16.4629 6.83399 16.4531 6.68946C17.1016 6.21485 17.6699 5.62696 18.123 4.96681Z" fill="white"/>
</svg>
